<svg width="25" height="24" viewBox="0 0 25 24" fill="none" xmlns="http://www.w3.org/2000/svg">
<path d="M12.0057 0.00300315C9.15519 0.00165411 6.39727 1.01507 4.22584 2.86178C2.0544 4.70848 0.611263 7.26787 0.154848 10.0816C-0.301566 12.8954 0.258554 15.7797 1.73491 18.2181C3.21126 20.6565 5.50742 22.4897 8.21221 23.3895C8.81221 23.5005 9.03271 23.1285 9.03271 22.812C9.03271 22.5255 9.02071 21.5805 9.01621 20.5785C5.67721 21.3045 4.97371 19.1625 4.97371 19.1625C4.42771 17.775 3.64171 17.406 3.64171 17.406C2.55271 16.6605 3.72421 16.677 3.72421 16.677C4.92871 16.761 5.56321 17.913 5.56321 17.913C6.63421 19.7475 8.37121 19.2165 9.05521 18.9105C9.16321 18.135 9.47371 17.6055 9.81721 17.3055C7.15171 17.0025 4.34971 15.9735 4.34971 11.3745C4.34971 10.065 4.81921 8.994 5.58571 8.154C5.46121 7.851 5.05021 6.6315 5.70121 4.9785C5.70121 4.9785 6.70921 4.656 9.00271 6.2085C9.98155 5.94224 10.9913 5.80656 12.0057 5.805C13.0257 5.8095 14.0532 5.943 15.0117 6.2085C17.3022 4.656 18.3087 4.9785 18.3087 4.9785C18.9612 6.6315 18.5517 7.8525 18.4272 8.154C19.1967 8.994 19.6617 10.065 19.6617 11.3745C19.6617 15.984 16.8537 16.998 14.1822 17.295C14.6127 17.667 14.9967 18.3975 14.9967 19.5165C14.9967 21.1215 14.9832 22.4145 14.9832 22.809C14.9832 23.1285 15.1992 23.502 15.8082 23.385C18.5125 22.4842 20.8078 20.6502 22.2832 18.2114C23.7586 15.7726 24.3177 12.8882 23.8604 10.0748C23.4031 7.26134 21.9593 4.70254 19.7875 2.85655C17.6156 1.01056 14.8576 -0.00205823 12.0072 3.14102e-06L12.0057 0.00300315Z" fill="white"/>
</svg>
