<svg width="23" height="23" viewBox="0 0 23 23" fill="none" xmlns="http://www.w3.org/2000/svg">
<path d="M21.1875 8.66251e-05H1.6875C1.24506 -0.00441615 0.8189 0.166782 0.502535 0.476117C0.18617 0.785452 0.00543961 1.20766 0 1.65009V21.2288C0.00642335 21.6706 0.187587 22.0919 0.503844 22.4004C0.820102 22.7089 1.2457 22.8796 1.6875 22.8751H21.1875C21.63 22.8786 22.0558 22.7068 22.372 22.3973C22.6882 22.0878 22.8691 21.6657 22.875 21.2232V1.64446C22.8671 1.20333 22.6854 0.783137 22.3694 0.475222C22.0534 0.167308 21.6287 -0.00344243 21.1875 8.66251e-05Z" fill="#0076B2"/>
<path d="M3.27 8.4375H6.66563V19.3631H3.27V8.4375ZM4.96875 3C5.35821 3 5.73892 3.11551 6.06272 3.33192C6.38652 3.54834 6.63886 3.85592 6.78782 4.21578C6.93677 4.57563 6.97565 4.97157 6.89953 5.35352C6.82342 5.73547 6.63572 6.08627 6.3602 6.36153C6.08468 6.63679 5.73371 6.82415 5.35168 6.8999C4.96966 6.97565 4.57375 6.9364 4.21404 6.7871C3.85433 6.6378 3.54699 6.38517 3.33088 6.06116C3.11478 5.73716 2.99963 5.35634 3 4.96687C3.0005 4.44505 3.20814 3.94478 3.5773 3.57597C3.94646 3.20716 4.44693 3 4.96875 3ZM8.79563 8.4375H12.0506V9.9375H12.0956C12.5494 9.07875 13.6556 8.17312 15.3075 8.17312C18.7463 8.16562 19.3838 10.4287 19.3838 13.3631V19.3631H15.9881V14.0475C15.9881 12.7819 15.9656 11.1525 14.2238 11.1525C12.4819 11.1525 12.1856 12.5325 12.1856 13.965V19.3631H8.79563V8.4375Z" fill="white"/>
</svg>
