<svg width="23" height="23" viewBox="0 0 23 23" fill="none" xmlns="http://www.w3.org/2000/svg">
<path opacity="0.2" d="M17.2645 14.1965L12.4213 15.9777C12.3205 16.0147 12.2289 16.0731 12.153 16.1491C12.077 16.225 12.0186 16.3166 11.9816 16.4174L10.2004 21.2605C10.1478 21.403 10.0529 21.5258 9.92832 21.6126C9.80378 21.6994 9.65563 21.7459 9.50382 21.7459C9.35202 21.7459 9.20387 21.6994 9.07932 21.6126C8.95478 21.5258 8.85983 21.403 8.80726 21.2605L7.02601 16.4174C6.98909 16.3166 6.93062 16.225 6.85468 16.1491C6.77875 16.0731 6.68717 16.0147 6.58632 15.9777L1.7432 14.1965C1.60079 14.1439 1.47791 14.049 1.39113 13.9244C1.30434 13.7999 1.25781 13.6517 1.25781 13.4999C1.25781 13.3481 1.30434 13.2 1.39113 13.0754C1.47791 12.9509 1.60079 12.8559 1.7432 12.8034L6.58632 11.0221C6.68717 10.9852 6.77875 10.9267 6.85468 10.8508C6.93062 10.7748 6.98909 10.6833 7.02601 10.5824L8.80726 5.73929C8.85983 5.59688 8.95478 5.47401 9.07932 5.38722C9.20387 5.30043 9.35202 5.25391 9.50382 5.25391C9.65563 5.25391 9.80378 5.30043 9.92832 5.38722C10.0529 5.47401 10.1478 5.59688 10.2004 5.73929L11.9816 10.5824C12.0186 10.6833 12.077 10.7748 12.153 10.8508C12.2289 10.9267 12.3205 10.9852 12.4213 11.0221L17.2645 12.8034C17.4069 12.8559 17.5297 12.9509 17.6165 13.0754C17.7033 13.2 17.7498 13.3481 17.7498 13.4999C17.7498 13.6517 17.7033 13.7999 17.6165 13.9244C17.5297 14.049 17.4069 14.1439 17.2645 14.1965Z" fill="#FFC700"/>
<path d="M17.5232 12.0994L12.6847 10.3181L10.9035 5.47594C10.798 5.18937 10.6072 4.94206 10.3567 4.76736C10.1063 4.59267 9.80824 4.499 9.50287 4.499C9.19751 4.499 8.89949 4.59267 8.64904 4.76736C8.39858 4.94206 8.20773 5.18937 8.10225 5.47594L6.31912 10.3125L1.47694 12.0938C1.19037 12.1992 0.943055 12.3901 0.768361 12.6405C0.593666 12.891 0.5 13.189 0.5 13.4944C0.5 13.7997 0.593666 14.0978 0.768361 14.3482C0.943055 14.5987 1.19037 14.7895 1.47694 14.895L6.31256 16.6875L8.09381 21.5269C8.1993 21.8134 8.39014 22.0608 8.6406 22.2355C8.89106 22.4101 9.18907 22.5038 9.49444 22.5038C9.7998 22.5038 10.0978 22.4101 10.3483 22.2355C10.5987 22.0608 10.7896 21.8134 10.8951 21.5269L12.6763 16.6884L17.5185 14.9072C17.8051 14.8017 18.0524 14.6109 18.2271 14.3604C18.4018 14.1099 18.4954 13.8119 18.4954 13.5066C18.4954 13.2012 18.4018 12.9032 18.2271 12.6527C18.0524 12.4023 17.8051 12.2114 17.5185 12.1059L17.5232 12.0994ZM12.1616 15.2812C11.9589 15.3556 11.7749 15.4732 11.6222 15.6259C11.4696 15.7786 11.352 15.9626 11.2776 16.1653L9.49631 20.9897L7.71881 16.1616C7.64436 15.96 7.52712 15.7769 7.37516 15.6249C7.22319 15.4729 7.04011 15.3557 6.8385 15.2812L2.01412 13.5L6.8385 11.7188C7.04011 11.6443 7.22319 11.5271 7.37516 11.3751C7.52712 11.2231 7.64436 11.04 7.71881 10.8384L9.50006 6.01406L11.2813 10.8384C11.3557 11.0411 11.4733 11.2252 11.626 11.3778C11.7786 11.5305 11.9627 11.6481 12.1654 11.7225L16.9897 13.5037L12.1616 15.2812ZM12.5001 3.75C12.5001 3.55109 12.5791 3.36032 12.7197 3.21967C12.8604 3.07902 13.0511 3 13.2501 3H14.7501V1.5C14.7501 1.30109 14.8291 1.11032 14.9697 0.96967C15.1104 0.829018 15.3011 0.75 15.5001 0.75C15.699 0.75 15.8897 0.829018 16.0304 0.96967C16.171 1.11032 16.2501 1.30109 16.2501 1.5V3H17.7501C17.949 3 18.1397 3.07902 18.2804 3.21967C18.421 3.36032 18.5001 3.55109 18.5001 3.75C18.5001 3.94891 18.421 4.13968 18.2804 4.28033C18.1397 4.42098 17.949 4.5 17.7501 4.5H16.2501V6C16.2501 6.19891 16.171 6.38968 16.0304 6.53033C15.8897 6.67098 15.699 6.75 15.5001 6.75C15.3011 6.75 15.1104 6.67098 14.9697 6.53033C14.8291 6.38968 14.7501 6.19891 14.7501 6V4.5H13.2501C13.0511 4.5 12.8604 4.42098 12.7197 4.28033C12.5791 4.13968 12.5001 3.94891 12.5001 3.75ZM22.2501 8.25C22.2501 8.44891 22.171 8.63968 22.0304 8.78033C21.8897 8.92098 21.699 9 21.5001 9H20.7501V9.75C20.7501 9.94891 20.671 10.1397 20.5304 10.2803C20.3897 10.421 20.199 10.5 20.0001 10.5C19.8011 10.5 19.6104 10.421 19.4697 10.2803C19.3291 10.1397 19.2501 9.94891 19.2501 9.75V9H18.5001C18.3011 9 18.1104 8.92098 17.9697 8.78033C17.8291 8.63968 17.7501 8.44891 17.7501 8.25C17.7501 8.05109 17.8291 7.86032 17.9697 7.71967C18.1104 7.57902 18.3011 7.5 18.5001 7.5H19.2501V6.75C19.2501 6.55109 19.3291 6.36032 19.4697 6.21967C19.6104 6.07902 19.8011 6 20.0001 6C20.199 6 20.3897 6.07902 20.5304 6.21967C20.671 6.36032 20.7501 6.55109 20.7501 6.75V7.5H21.5001C21.699 7.5 21.8897 7.57902 22.0304 7.71967C22.171 7.86032 22.2501 8.05109 22.2501 8.25Z" fill="#FFC700"/>
</svg>
