<svg width="18" height="18" viewBox="0 0 18 18" fill="none" xmlns="http://www.w3.org/2000/svg">
<path d="M5.66494 12.7349C5.90994 12.9079 6.20194 12.9999 6.50094 12.9989V12.9949C6.78322 12.9955 7.05947 12.9132 7.29538 12.7582C7.53129 12.6031 7.71647 12.3822 7.82794 12.1229L8.44094 10.2589C8.58244 9.83658 8.82028 9.45301 9.13564 9.13851C9.45101 8.82401 9.83524 8.58722 10.2579 8.44689L12.0359 7.86889C12.3228 7.76877 12.5708 7.58057 12.7444 7.33116C12.918 7.08174 13.0083 6.78387 13.0026 6.48005C12.9968 6.17623 12.8952 5.882 12.7123 5.63936C12.5293 5.39671 12.2744 5.21806 11.9839 5.12889L10.2289 4.55889C9.8044 4.41763 9.41866 4.1793 9.10237 3.86283C8.78609 3.54637 8.54797 3.1605 8.40694 2.73589L7.82894 0.95889C7.72813 0.675865 7.54168 0.431266 7.29547 0.25908C7.04927 0.0868949 6.75554 -0.0043255 6.45511 -0.00190622C6.15468 0.000513064 5.86246 0.096452 5.61906 0.27258C5.37566 0.448708 5.19317 0.696278 5.09694 0.98089L4.51394 2.77289C4.37335 3.18515 4.14099 3.56012 3.83439 3.8695C3.52778 4.17888 3.15492 4.4146 2.74394 4.55889L0.966937 5.12889C0.681729 5.22758 0.43461 5.41315 0.260304 5.65952C0.0859991 5.90589 -0.00673077 6.20069 -0.0048549 6.50248C-0.00297904 6.80428 0.0934082 7.0979 0.270763 7.34209C0.448117 7.58627 0.697524 7.76876 0.983937 7.86389L2.73794 8.43289C3.16242 8.57515 3.548 8.81417 3.86422 9.13108C4.18043 9.44799 4.41861 9.8341 4.55994 10.2589L5.13794 12.0339C5.23694 12.3169 5.42094 12.5619 5.66494 12.7349ZM13.3319 17.7819C13.1412 17.6458 12.9979 17.4535 12.9219 17.2319L12.5939 16.2259C12.5309 16.0341 12.4238 15.8598 12.2812 15.7168C12.1387 15.5739 11.9646 15.4664 11.7729 15.4029L10.7819 15.0799C10.5551 15.0034 10.3578 14.8578 10.2178 14.6636C10.0778 14.4694 10.0019 14.2363 10.0009 13.9969C10.0009 13.759 10.0753 13.527 10.2135 13.3334C10.3517 13.1398 10.5469 12.9942 10.7719 12.9169L11.7779 12.5909C11.9651 12.5244 12.1345 12.4159 12.2731 12.2738C12.4118 12.1316 12.5161 11.9596 12.5779 11.7709L12.9019 10.7799C12.9782 10.5557 13.1222 10.3606 13.314 10.2218C13.5059 10.0829 13.7362 10.0071 13.973 10.0048C14.2098 10.0025 14.4415 10.0738 14.6361 10.2089C14.8306 10.344 14.9784 10.5362 15.0589 10.7589L15.3879 11.7729C15.4523 11.963 15.5598 12.1356 15.7021 12.2772C15.8444 12.4188 16.0175 12.5255 16.2079 12.5889L17.1999 12.9119C17.4286 12.9834 17.629 13.1251 17.7726 13.3169C17.9162 13.5086 17.9959 13.7408 18.0002 13.9803C18.0045 14.2199 17.9333 14.4547 17.7967 14.6515C17.66 14.8484 17.4649 14.9972 17.2389 15.0769L16.2249 15.4059C16.0343 15.4702 15.8611 15.578 15.7192 15.7206C15.5773 15.8633 15.4704 16.0369 15.4069 16.2279L15.0849 17.2169C15.0069 17.4469 14.8589 17.6469 14.6599 17.7869C14.4658 17.9249 14.2333 17.9986 13.9951 17.9977C13.7569 17.9968 13.525 17.9214 13.3319 17.7819Z" fill="#FFC700"/>
</svg>
